<mxfile host="app.diagrams.net" modified="2023-07-19T09:13:15.702Z" agent="Mozilla/5.0 (Windows NT 10.0; Win64; x64) AppleWebKit/537.36 (KHTML, like Gecko) Chrome/115.0.0.0 Safari/537.36" etag="2D_0Ze27vt2kjjclLOK9" version="21.5.0" type="device">
  <diagram id="C5RBs43oDa-KdzZeNtuy" name="Page-1">
    <mxGraphModel dx="780" dy="382" grid="1" gridSize="10" guides="1" tooltips="1" connect="1" arrows="1" fold="1" page="1" pageScale="1" pageWidth="827" pageHeight="1169" math="0" shadow="0">
      <root>
        <mxCell id="WIyWlLk6GJQsqaUBKTNV-0" />
        <mxCell id="WIyWlLk6GJQsqaUBKTNV-1" parent="WIyWlLk6GJQsqaUBKTNV-0" />
        <mxCell id="WIyWlLk6GJQsqaUBKTNV-2" value="" style="rounded=0;html=1;jettySize=auto;orthogonalLoop=1;fontSize=11;endArrow=block;endFill=0;endSize=8;strokeWidth=1;shadow=0;labelBackgroundColor=none;edgeStyle=orthogonalEdgeStyle;" parent="WIyWlLk6GJQsqaUBKTNV-1" source="WIyWlLk6GJQsqaUBKTNV-3" edge="1">
          <mxGeometry relative="1" as="geometry">
            <mxPoint x="220" y="170" as="targetPoint" />
          </mxGeometry>
        </mxCell>
        <mxCell id="WIyWlLk6GJQsqaUBKTNV-3" value="Start" style="rounded=1;whiteSpace=wrap;html=1;fontSize=12;glass=0;strokeWidth=1;shadow=0;" parent="WIyWlLk6GJQsqaUBKTNV-1" vertex="1">
          <mxGeometry x="160" y="80" width="120" height="40" as="geometry" />
        </mxCell>
        <mxCell id="_YHEuX3XCHLoAj_idzYY-0" value="Open the RPA Sample-&amp;nbsp;&lt;h1 style=&quot;box-sizing: inherit; clear: both; color: var(--color-words-heading); font-family: var(--font-family-heading); line-height: var(--font-leading-heading); font-size: var(--font-size-xxxl); margin-right: auto; margin-left: auto; display: var(--page-title-display); max-width: var(--grid-column-7); width: 710px; text-align: start; background-color: rgb(255, 255, 255);&quot; class=&quot;entry-title&quot;&gt;HR On-Boarding Process Form&lt;/h1&gt;" style="rounded=0;whiteSpace=wrap;html=1;" vertex="1" parent="WIyWlLk6GJQsqaUBKTNV-1">
          <mxGeometry x="160" y="170" width="120" height="60" as="geometry" />
        </mxCell>
        <mxCell id="_YHEuX3XCHLoAj_idzYY-1" value="" style="endArrow=none;dashed=1;html=1;rounded=0;" edge="1" parent="WIyWlLk6GJQsqaUBKTNV-1">
          <mxGeometry width="50" height="50" relative="1" as="geometry">
            <mxPoint x="160" y="234" as="sourcePoint" />
            <mxPoint x="280" y="234" as="targetPoint" />
            <Array as="points">
              <mxPoint x="230" y="234" />
              <mxPoint x="280" y="234" />
            </Array>
          </mxGeometry>
        </mxCell>
        <mxCell id="_YHEuX3XCHLoAj_idzYY-2" value="" style="endArrow=none;dashed=1;html=1;rounded=0;" edge="1" parent="WIyWlLk6GJQsqaUBKTNV-1">
          <mxGeometry width="50" height="50" relative="1" as="geometry">
            <mxPoint x="170" y="251" as="sourcePoint" />
            <mxPoint x="280" y="251" as="targetPoint" />
            <Array as="points">
              <mxPoint x="160" y="251" />
              <mxPoint x="180" y="251" />
              <mxPoint x="240" y="251" />
              <mxPoint x="280" y="251" />
            </Array>
          </mxGeometry>
        </mxCell>
        <mxCell id="_YHEuX3XCHLoAj_idzYY-4" value="" style="endArrow=none;dashed=1;html=1;dashPattern=1 3;strokeWidth=2;rounded=0;" edge="1" parent="WIyWlLk6GJQsqaUBKTNV-1">
          <mxGeometry width="50" height="50" relative="1" as="geometry">
            <mxPoint x="280" y="252" as="sourcePoint" />
            <mxPoint x="280" y="232" as="targetPoint" />
          </mxGeometry>
        </mxCell>
        <mxCell id="_YHEuX3XCHLoAj_idzYY-5" value="" style="endArrow=none;dashed=1;html=1;dashPattern=1 3;strokeWidth=2;rounded=0;" edge="1" parent="WIyWlLk6GJQsqaUBKTNV-1">
          <mxGeometry width="50" height="50" relative="1" as="geometry">
            <mxPoint x="160" y="252" as="sourcePoint" />
            <mxPoint x="160" y="232" as="targetPoint" />
          </mxGeometry>
        </mxCell>
        <mxCell id="_YHEuX3XCHLoAj_idzYY-26" value="Type in the Personal Details" style="rounded=0;whiteSpace=wrap;html=1;" vertex="1" parent="WIyWlLk6GJQsqaUBKTNV-1">
          <mxGeometry x="159" y="290" width="120" height="60" as="geometry" />
        </mxCell>
        <mxCell id="_YHEuX3XCHLoAj_idzYY-27" value="" style="endArrow=none;dashed=1;html=1;rounded=0;" edge="1" parent="WIyWlLk6GJQsqaUBKTNV-1">
          <mxGeometry width="50" height="50" relative="1" as="geometry">
            <mxPoint x="159" y="354" as="sourcePoint" />
            <mxPoint x="279" y="354" as="targetPoint" />
            <Array as="points">
              <mxPoint x="229" y="354" />
              <mxPoint x="279" y="354" />
            </Array>
          </mxGeometry>
        </mxCell>
        <mxCell id="_YHEuX3XCHLoAj_idzYY-28" value="" style="endArrow=none;dashed=1;html=1;rounded=0;" edge="1" parent="WIyWlLk6GJQsqaUBKTNV-1">
          <mxGeometry width="50" height="50" relative="1" as="geometry">
            <mxPoint x="169" y="371" as="sourcePoint" />
            <mxPoint x="279" y="371" as="targetPoint" />
            <Array as="points">
              <mxPoint x="159" y="371" />
              <mxPoint x="179" y="371" />
              <mxPoint x="239" y="371" />
              <mxPoint x="279" y="371" />
            </Array>
          </mxGeometry>
        </mxCell>
        <mxCell id="_YHEuX3XCHLoAj_idzYY-29" value="" style="endArrow=none;dashed=1;html=1;dashPattern=1 3;strokeWidth=2;rounded=0;" edge="1" parent="WIyWlLk6GJQsqaUBKTNV-1">
          <mxGeometry width="50" height="50" relative="1" as="geometry">
            <mxPoint x="279" y="372" as="sourcePoint" />
            <mxPoint x="279" y="352" as="targetPoint" />
          </mxGeometry>
        </mxCell>
        <mxCell id="_YHEuX3XCHLoAj_idzYY-30" value="" style="endArrow=none;dashed=1;html=1;dashPattern=1 3;strokeWidth=2;rounded=0;" edge="1" parent="WIyWlLk6GJQsqaUBKTNV-1">
          <mxGeometry width="50" height="50" relative="1" as="geometry">
            <mxPoint x="159" y="372" as="sourcePoint" />
            <mxPoint x="159" y="352" as="targetPoint" />
          </mxGeometry>
        </mxCell>
        <mxCell id="_YHEuX3XCHLoAj_idzYY-31" value="&amp;nbsp; &amp;nbsp; &amp;nbsp; &amp;nbsp; &amp;nbsp; &amp;nbsp;Browser" style="text;html=1;align=center;verticalAlign=middle;resizable=0;points=[];autosize=1;strokeColor=none;fillColor=none;" vertex="1" parent="WIyWlLk6GJQsqaUBKTNV-1">
          <mxGeometry x="151" y="228" width="100" height="30" as="geometry" />
        </mxCell>
        <mxCell id="_YHEuX3XCHLoAj_idzYY-32" value="Check the privacy policy box to accept the terms" style="rounded=0;whiteSpace=wrap;html=1;" vertex="1" parent="WIyWlLk6GJQsqaUBKTNV-1">
          <mxGeometry x="160" y="409" width="120" height="60" as="geometry" />
        </mxCell>
        <mxCell id="_YHEuX3XCHLoAj_idzYY-33" value="" style="endArrow=none;dashed=1;html=1;rounded=0;" edge="1" parent="WIyWlLk6GJQsqaUBKTNV-1">
          <mxGeometry width="50" height="50" relative="1" as="geometry">
            <mxPoint x="160" y="473" as="sourcePoint" />
            <mxPoint x="280" y="473" as="targetPoint" />
            <Array as="points">
              <mxPoint x="230" y="473" />
              <mxPoint x="280" y="473" />
            </Array>
          </mxGeometry>
        </mxCell>
        <mxCell id="_YHEuX3XCHLoAj_idzYY-34" value="" style="endArrow=none;dashed=1;html=1;rounded=0;" edge="1" parent="WIyWlLk6GJQsqaUBKTNV-1">
          <mxGeometry width="50" height="50" relative="1" as="geometry">
            <mxPoint x="170" y="490" as="sourcePoint" />
            <mxPoint x="280" y="490" as="targetPoint" />
            <Array as="points">
              <mxPoint x="160" y="490" />
              <mxPoint x="180" y="490" />
              <mxPoint x="240" y="490" />
              <mxPoint x="280" y="490" />
            </Array>
          </mxGeometry>
        </mxCell>
        <mxCell id="_YHEuX3XCHLoAj_idzYY-35" value="" style="endArrow=none;dashed=1;html=1;dashPattern=1 3;strokeWidth=2;rounded=0;" edge="1" parent="WIyWlLk6GJQsqaUBKTNV-1">
          <mxGeometry width="50" height="50" relative="1" as="geometry">
            <mxPoint x="280" y="491" as="sourcePoint" />
            <mxPoint x="280" y="471" as="targetPoint" />
          </mxGeometry>
        </mxCell>
        <mxCell id="_YHEuX3XCHLoAj_idzYY-36" value="" style="endArrow=none;dashed=1;html=1;dashPattern=1 3;strokeWidth=2;rounded=0;" edge="1" parent="WIyWlLk6GJQsqaUBKTNV-1">
          <mxGeometry width="50" height="50" relative="1" as="geometry">
            <mxPoint x="160" y="491" as="sourcePoint" />
            <mxPoint x="160" y="471" as="targetPoint" />
          </mxGeometry>
        </mxCell>
        <mxCell id="_YHEuX3XCHLoAj_idzYY-37" value="Click the submit button&amp;nbsp;" style="rounded=0;whiteSpace=wrap;html=1;" vertex="1" parent="WIyWlLk6GJQsqaUBKTNV-1">
          <mxGeometry x="159" y="530" width="120" height="60" as="geometry" />
        </mxCell>
        <mxCell id="_YHEuX3XCHLoAj_idzYY-38" value="" style="endArrow=none;dashed=1;html=1;rounded=0;" edge="1" parent="WIyWlLk6GJQsqaUBKTNV-1">
          <mxGeometry width="50" height="50" relative="1" as="geometry">
            <mxPoint x="159" y="594" as="sourcePoint" />
            <mxPoint x="279" y="594" as="targetPoint" />
            <Array as="points">
              <mxPoint x="229" y="594" />
              <mxPoint x="279" y="594" />
            </Array>
          </mxGeometry>
        </mxCell>
        <mxCell id="_YHEuX3XCHLoAj_idzYY-39" value="" style="endArrow=none;dashed=1;html=1;rounded=0;" edge="1" parent="WIyWlLk6GJQsqaUBKTNV-1">
          <mxGeometry width="50" height="50" relative="1" as="geometry">
            <mxPoint x="169" y="611" as="sourcePoint" />
            <mxPoint x="279" y="611" as="targetPoint" />
            <Array as="points">
              <mxPoint x="159" y="611" />
              <mxPoint x="179" y="611" />
              <mxPoint x="239" y="611" />
              <mxPoint x="279" y="611" />
            </Array>
          </mxGeometry>
        </mxCell>
        <mxCell id="_YHEuX3XCHLoAj_idzYY-40" value="" style="endArrow=none;dashed=1;html=1;dashPattern=1 3;strokeWidth=2;rounded=0;" edge="1" parent="WIyWlLk6GJQsqaUBKTNV-1">
          <mxGeometry width="50" height="50" relative="1" as="geometry">
            <mxPoint x="279" y="612" as="sourcePoint" />
            <mxPoint x="279" y="592" as="targetPoint" />
          </mxGeometry>
        </mxCell>
        <mxCell id="_YHEuX3XCHLoAj_idzYY-41" value="" style="endArrow=none;dashed=1;html=1;dashPattern=1 3;strokeWidth=2;rounded=0;" edge="1" parent="WIyWlLk6GJQsqaUBKTNV-1">
          <mxGeometry width="50" height="50" relative="1" as="geometry">
            <mxPoint x="159" y="612" as="sourcePoint" />
            <mxPoint x="159" y="592" as="targetPoint" />
          </mxGeometry>
        </mxCell>
        <mxCell id="_YHEuX3XCHLoAj_idzYY-42" value="Copy the generated employee ID and official email ID" style="rounded=0;whiteSpace=wrap;html=1;" vertex="1" parent="WIyWlLk6GJQsqaUBKTNV-1">
          <mxGeometry x="160" y="653" width="120" height="60" as="geometry" />
        </mxCell>
        <mxCell id="_YHEuX3XCHLoAj_idzYY-43" value="" style="endArrow=none;dashed=1;html=1;rounded=0;" edge="1" parent="WIyWlLk6GJQsqaUBKTNV-1">
          <mxGeometry width="50" height="50" relative="1" as="geometry">
            <mxPoint x="160" y="717" as="sourcePoint" />
            <mxPoint x="280" y="717" as="targetPoint" />
            <Array as="points">
              <mxPoint x="230" y="717" />
              <mxPoint x="280" y="717" />
            </Array>
          </mxGeometry>
        </mxCell>
        <mxCell id="_YHEuX3XCHLoAj_idzYY-44" value="" style="endArrow=none;dashed=1;html=1;rounded=0;" edge="1" parent="WIyWlLk6GJQsqaUBKTNV-1">
          <mxGeometry width="50" height="50" relative="1" as="geometry">
            <mxPoint x="170" y="734" as="sourcePoint" />
            <mxPoint x="280" y="734" as="targetPoint" />
            <Array as="points">
              <mxPoint x="160" y="734" />
              <mxPoint x="180" y="734" />
              <mxPoint x="240" y="734" />
              <mxPoint x="280" y="734" />
            </Array>
          </mxGeometry>
        </mxCell>
        <mxCell id="_YHEuX3XCHLoAj_idzYY-45" value="" style="endArrow=none;dashed=1;html=1;dashPattern=1 3;strokeWidth=2;rounded=0;" edge="1" parent="WIyWlLk6GJQsqaUBKTNV-1">
          <mxGeometry width="50" height="50" relative="1" as="geometry">
            <mxPoint x="280" y="735" as="sourcePoint" />
            <mxPoint x="280" y="715" as="targetPoint" />
          </mxGeometry>
        </mxCell>
        <mxCell id="_YHEuX3XCHLoAj_idzYY-46" value="" style="endArrow=none;dashed=1;html=1;dashPattern=1 3;strokeWidth=2;rounded=0;" edge="1" parent="WIyWlLk6GJQsqaUBKTNV-1">
          <mxGeometry width="50" height="50" relative="1" as="geometry">
            <mxPoint x="160" y="735" as="sourcePoint" />
            <mxPoint x="160" y="715" as="targetPoint" />
          </mxGeometry>
        </mxCell>
        <mxCell id="_YHEuX3XCHLoAj_idzYY-47" value="Browser" style="text;whiteSpace=wrap;html=1;" vertex="1" parent="WIyWlLk6GJQsqaUBKTNV-1">
          <mxGeometry x="197" y="350" width="80" height="40" as="geometry" />
        </mxCell>
        <mxCell id="_YHEuX3XCHLoAj_idzYY-48" value="Browser" style="text;whiteSpace=wrap;html=1;" vertex="1" parent="WIyWlLk6GJQsqaUBKTNV-1">
          <mxGeometry x="196" y="469" width="80" height="40" as="geometry" />
        </mxCell>
        <mxCell id="_YHEuX3XCHLoAj_idzYY-49" value="Browser" style="text;whiteSpace=wrap;html=1;" vertex="1" parent="WIyWlLk6GJQsqaUBKTNV-1">
          <mxGeometry x="198" y="590" width="80" height="40" as="geometry" />
        </mxCell>
        <mxCell id="_YHEuX3XCHLoAj_idzYY-50" value="Browser" style="text;whiteSpace=wrap;html=1;" vertex="1" parent="WIyWlLk6GJQsqaUBKTNV-1">
          <mxGeometry x="197" y="715" width="80" height="40" as="geometry" />
        </mxCell>
        <mxCell id="_YHEuX3XCHLoAj_idzYY-51" value="Open notepad&amp;nbsp;&amp;nbsp;" style="rounded=0;whiteSpace=wrap;html=1;" vertex="1" parent="WIyWlLk6GJQsqaUBKTNV-1">
          <mxGeometry x="160" y="775" width="120" height="60" as="geometry" />
        </mxCell>
        <mxCell id="_YHEuX3XCHLoAj_idzYY-52" value="" style="endArrow=none;dashed=1;html=1;rounded=0;" edge="1" parent="WIyWlLk6GJQsqaUBKTNV-1">
          <mxGeometry width="50" height="50" relative="1" as="geometry">
            <mxPoint x="160" y="839" as="sourcePoint" />
            <mxPoint x="280" y="839" as="targetPoint" />
            <Array as="points">
              <mxPoint x="230" y="839" />
              <mxPoint x="280" y="839" />
            </Array>
          </mxGeometry>
        </mxCell>
        <mxCell id="_YHEuX3XCHLoAj_idzYY-53" value="" style="endArrow=none;dashed=1;html=1;rounded=0;" edge="1" parent="WIyWlLk6GJQsqaUBKTNV-1">
          <mxGeometry width="50" height="50" relative="1" as="geometry">
            <mxPoint x="170" y="856" as="sourcePoint" />
            <mxPoint x="280" y="856" as="targetPoint" />
            <Array as="points">
              <mxPoint x="160" y="856" />
              <mxPoint x="180" y="856" />
              <mxPoint x="240" y="856" />
              <mxPoint x="280" y="856" />
            </Array>
          </mxGeometry>
        </mxCell>
        <mxCell id="_YHEuX3XCHLoAj_idzYY-54" value="" style="endArrow=none;dashed=1;html=1;dashPattern=1 3;strokeWidth=2;rounded=0;" edge="1" parent="WIyWlLk6GJQsqaUBKTNV-1">
          <mxGeometry width="50" height="50" relative="1" as="geometry">
            <mxPoint x="280" y="857" as="sourcePoint" />
            <mxPoint x="280" y="837" as="targetPoint" />
          </mxGeometry>
        </mxCell>
        <mxCell id="_YHEuX3XCHLoAj_idzYY-55" value="" style="endArrow=none;dashed=1;html=1;dashPattern=1 3;strokeWidth=2;rounded=0;" edge="1" parent="WIyWlLk6GJQsqaUBKTNV-1">
          <mxGeometry width="50" height="50" relative="1" as="geometry">
            <mxPoint x="160" y="857" as="sourcePoint" />
            <mxPoint x="160" y="837" as="targetPoint" />
          </mxGeometry>
        </mxCell>
        <mxCell id="_YHEuX3XCHLoAj_idzYY-56" value="Paste the employee ID and email ID copied earlier" style="rounded=0;whiteSpace=wrap;html=1;" vertex="1" parent="WIyWlLk6GJQsqaUBKTNV-1">
          <mxGeometry x="160" y="895" width="120" height="60" as="geometry" />
        </mxCell>
        <mxCell id="_YHEuX3XCHLoAj_idzYY-57" value="" style="endArrow=none;dashed=1;html=1;rounded=0;" edge="1" parent="WIyWlLk6GJQsqaUBKTNV-1">
          <mxGeometry width="50" height="50" relative="1" as="geometry">
            <mxPoint x="160" y="959" as="sourcePoint" />
            <mxPoint x="280" y="959" as="targetPoint" />
            <Array as="points">
              <mxPoint x="230" y="959" />
              <mxPoint x="280" y="959" />
            </Array>
          </mxGeometry>
        </mxCell>
        <mxCell id="_YHEuX3XCHLoAj_idzYY-58" value="" style="endArrow=none;dashed=1;html=1;rounded=0;" edge="1" parent="WIyWlLk6GJQsqaUBKTNV-1">
          <mxGeometry width="50" height="50" relative="1" as="geometry">
            <mxPoint x="170" y="976" as="sourcePoint" />
            <mxPoint x="280" y="976" as="targetPoint" />
            <Array as="points">
              <mxPoint x="160" y="976" />
              <mxPoint x="180" y="976" />
              <mxPoint x="240" y="976" />
              <mxPoint x="280" y="976" />
            </Array>
          </mxGeometry>
        </mxCell>
        <mxCell id="_YHEuX3XCHLoAj_idzYY-59" value="" style="endArrow=none;dashed=1;html=1;dashPattern=1 3;strokeWidth=2;rounded=0;" edge="1" parent="WIyWlLk6GJQsqaUBKTNV-1">
          <mxGeometry width="50" height="50" relative="1" as="geometry">
            <mxPoint x="280" y="977" as="sourcePoint" />
            <mxPoint x="280" y="957" as="targetPoint" />
          </mxGeometry>
        </mxCell>
        <mxCell id="_YHEuX3XCHLoAj_idzYY-60" value="" style="endArrow=none;dashed=1;html=1;dashPattern=1 3;strokeWidth=2;rounded=0;" edge="1" parent="WIyWlLk6GJQsqaUBKTNV-1">
          <mxGeometry width="50" height="50" relative="1" as="geometry">
            <mxPoint x="160" y="977" as="sourcePoint" />
            <mxPoint x="160" y="957" as="targetPoint" />
          </mxGeometry>
        </mxCell>
        <mxCell id="_YHEuX3XCHLoAj_idzYY-61" value="Save the details" style="rounded=0;whiteSpace=wrap;html=1;" vertex="1" parent="WIyWlLk6GJQsqaUBKTNV-1">
          <mxGeometry x="160" y="1010" width="120" height="60" as="geometry" />
        </mxCell>
        <mxCell id="_YHEuX3XCHLoAj_idzYY-62" value="" style="endArrow=none;dashed=1;html=1;rounded=0;" edge="1" parent="WIyWlLk6GJQsqaUBKTNV-1">
          <mxGeometry width="50" height="50" relative="1" as="geometry">
            <mxPoint x="160" y="1074" as="sourcePoint" />
            <mxPoint x="280" y="1074" as="targetPoint" />
            <Array as="points">
              <mxPoint x="230" y="1074" />
              <mxPoint x="280" y="1074" />
            </Array>
          </mxGeometry>
        </mxCell>
        <mxCell id="_YHEuX3XCHLoAj_idzYY-63" value="" style="endArrow=none;dashed=1;html=1;rounded=0;" edge="1" parent="WIyWlLk6GJQsqaUBKTNV-1">
          <mxGeometry width="50" height="50" relative="1" as="geometry">
            <mxPoint x="170" y="1091" as="sourcePoint" />
            <mxPoint x="280" y="1091" as="targetPoint" />
            <Array as="points">
              <mxPoint x="160" y="1091" />
              <mxPoint x="180" y="1091" />
              <mxPoint x="240" y="1091" />
              <mxPoint x="280" y="1091" />
            </Array>
          </mxGeometry>
        </mxCell>
        <mxCell id="_YHEuX3XCHLoAj_idzYY-64" value="" style="endArrow=none;dashed=1;html=1;dashPattern=1 3;strokeWidth=2;rounded=0;" edge="1" parent="WIyWlLk6GJQsqaUBKTNV-1">
          <mxGeometry width="50" height="50" relative="1" as="geometry">
            <mxPoint x="280" y="1092" as="sourcePoint" />
            <mxPoint x="280" y="1072" as="targetPoint" />
          </mxGeometry>
        </mxCell>
        <mxCell id="_YHEuX3XCHLoAj_idzYY-65" value="" style="endArrow=none;dashed=1;html=1;dashPattern=1 3;strokeWidth=2;rounded=0;" edge="1" parent="WIyWlLk6GJQsqaUBKTNV-1">
          <mxGeometry width="50" height="50" relative="1" as="geometry">
            <mxPoint x="160" y="1092" as="sourcePoint" />
            <mxPoint x="160" y="1072" as="targetPoint" />
          </mxGeometry>
        </mxCell>
        <mxCell id="_YHEuX3XCHLoAj_idzYY-66" value="End" style="rounded=1;whiteSpace=wrap;html=1;fontSize=12;glass=0;strokeWidth=1;shadow=0;" vertex="1" parent="WIyWlLk6GJQsqaUBKTNV-1">
          <mxGeometry x="160" y="1126" width="120" height="40" as="geometry" />
        </mxCell>
        <mxCell id="_YHEuX3XCHLoAj_idzYY-68" value="&amp;nbsp; &amp;nbsp; &amp;nbsp; &amp;nbsp; &amp;nbsp; &amp;nbsp; &amp;nbsp; &amp;nbsp;Internal App" style="text;html=1;align=center;verticalAlign=middle;resizable=0;points=[];autosize=1;strokeColor=none;fillColor=none;" vertex="1" parent="WIyWlLk6GJQsqaUBKTNV-1">
          <mxGeometry x="120" y="834" width="140" height="30" as="geometry" />
        </mxCell>
        <mxCell id="_YHEuX3XCHLoAj_idzYY-70" value="Internal App" style="text;whiteSpace=wrap;html=1;" vertex="1" parent="WIyWlLk6GJQsqaUBKTNV-1">
          <mxGeometry x="183" y="953" width="100" height="40" as="geometry" />
        </mxCell>
        <mxCell id="_YHEuX3XCHLoAj_idzYY-71" value="Internal App" style="text;whiteSpace=wrap;html=1;" vertex="1" parent="WIyWlLk6GJQsqaUBKTNV-1">
          <mxGeometry x="181" y="1070" width="100" height="40" as="geometry" />
        </mxCell>
        <mxCell id="_YHEuX3XCHLoAj_idzYY-72" value="" style="rounded=0;html=1;jettySize=auto;orthogonalLoop=1;fontSize=11;endArrow=block;endFill=0;endSize=8;strokeWidth=1;shadow=0;labelBackgroundColor=none;edgeStyle=orthogonalEdgeStyle;" edge="1" parent="WIyWlLk6GJQsqaUBKTNV-1">
          <mxGeometry relative="1" as="geometry">
            <mxPoint x="222" y="250" as="sourcePoint" />
            <mxPoint x="222" y="292" as="targetPoint" />
          </mxGeometry>
        </mxCell>
        <mxCell id="_YHEuX3XCHLoAj_idzYY-73" value="" style="rounded=0;html=1;jettySize=auto;orthogonalLoop=1;fontSize=11;endArrow=block;endFill=0;endSize=8;strokeWidth=1;shadow=0;labelBackgroundColor=none;edgeStyle=orthogonalEdgeStyle;" edge="1" parent="WIyWlLk6GJQsqaUBKTNV-1">
          <mxGeometry relative="1" as="geometry">
            <mxPoint x="222" y="380" as="sourcePoint" />
            <mxPoint x="222" y="410" as="targetPoint" />
            <Array as="points">
              <mxPoint x="222" y="370" />
              <mxPoint x="222" y="370" />
            </Array>
          </mxGeometry>
        </mxCell>
        <mxCell id="_YHEuX3XCHLoAj_idzYY-77" value="" style="rounded=0;html=1;jettySize=auto;orthogonalLoop=1;fontSize=11;endArrow=block;endFill=0;endSize=8;strokeWidth=1;shadow=0;labelBackgroundColor=none;edgeStyle=orthogonalEdgeStyle;" edge="1" parent="WIyWlLk6GJQsqaUBKTNV-1">
          <mxGeometry relative="1" as="geometry">
            <mxPoint x="222" y="499" as="sourcePoint" />
            <mxPoint x="222" y="530" as="targetPoint" />
            <Array as="points">
              <mxPoint x="222" y="489" />
              <mxPoint x="222" y="489" />
            </Array>
          </mxGeometry>
        </mxCell>
        <mxCell id="_YHEuX3XCHLoAj_idzYY-79" value="" style="rounded=0;html=1;jettySize=auto;orthogonalLoop=1;fontSize=11;endArrow=block;endFill=0;endSize=8;strokeWidth=1;shadow=0;labelBackgroundColor=none;edgeStyle=orthogonalEdgeStyle;" edge="1" parent="WIyWlLk6GJQsqaUBKTNV-1">
          <mxGeometry relative="1" as="geometry">
            <mxPoint x="222" y="622" as="sourcePoint" />
            <mxPoint x="222" y="653" as="targetPoint" />
            <Array as="points">
              <mxPoint x="222" y="612" />
              <mxPoint x="222" y="612" />
            </Array>
          </mxGeometry>
        </mxCell>
        <mxCell id="_YHEuX3XCHLoAj_idzYY-80" value="" style="rounded=0;html=1;jettySize=auto;orthogonalLoop=1;fontSize=11;endArrow=block;endFill=0;endSize=8;strokeWidth=1;shadow=0;labelBackgroundColor=none;edgeStyle=orthogonalEdgeStyle;" edge="1" parent="WIyWlLk6GJQsqaUBKTNV-1">
          <mxGeometry relative="1" as="geometry">
            <mxPoint x="222" y="744" as="sourcePoint" />
            <mxPoint x="222" y="775" as="targetPoint" />
            <Array as="points">
              <mxPoint x="222" y="734" />
              <mxPoint x="222" y="734" />
            </Array>
          </mxGeometry>
        </mxCell>
        <mxCell id="_YHEuX3XCHLoAj_idzYY-81" value="" style="rounded=0;html=1;jettySize=auto;orthogonalLoop=1;fontSize=11;endArrow=block;endFill=0;endSize=8;strokeWidth=1;shadow=0;labelBackgroundColor=none;edgeStyle=orthogonalEdgeStyle;" edge="1" parent="WIyWlLk6GJQsqaUBKTNV-1">
          <mxGeometry relative="1" as="geometry">
            <mxPoint x="222" y="865" as="sourcePoint" />
            <mxPoint x="222" y="896" as="targetPoint" />
            <Array as="points">
              <mxPoint x="222" y="855" />
              <mxPoint x="222" y="855" />
            </Array>
          </mxGeometry>
        </mxCell>
        <mxCell id="_YHEuX3XCHLoAj_idzYY-82" value="" style="rounded=0;html=1;jettySize=auto;orthogonalLoop=1;fontSize=11;endArrow=block;endFill=0;endSize=8;strokeWidth=1;shadow=0;labelBackgroundColor=none;edgeStyle=orthogonalEdgeStyle;" edge="1" parent="WIyWlLk6GJQsqaUBKTNV-1">
          <mxGeometry relative="1" as="geometry">
            <mxPoint x="222" y="985" as="sourcePoint" />
            <mxPoint x="222" y="1010" as="targetPoint" />
            <Array as="points">
              <mxPoint x="222" y="975" />
              <mxPoint x="222" y="975" />
            </Array>
          </mxGeometry>
        </mxCell>
        <mxCell id="_YHEuX3XCHLoAj_idzYY-84" value="" style="rounded=0;html=1;jettySize=auto;orthogonalLoop=1;fontSize=11;endArrow=block;endFill=0;endSize=8;strokeWidth=1;shadow=0;labelBackgroundColor=none;edgeStyle=orthogonalEdgeStyle;" edge="1" parent="WIyWlLk6GJQsqaUBKTNV-1">
          <mxGeometry relative="1" as="geometry">
            <mxPoint x="222" y="1101" as="sourcePoint" />
            <mxPoint x="222" y="1126" as="targetPoint" />
            <Array as="points">
              <mxPoint x="222" y="1091" />
              <mxPoint x="222" y="1091" />
            </Array>
          </mxGeometry>
        </mxCell>
      </root>
    </mxGraphModel>
  </diagram>
</mxfile>
